<?xml version="1.0" encoding="UTF-8" standalone="no"?>
<svg
   width="1200"
   height="1309"
   version="1.1"
   id="svg38"
   sodipodi:docname="logo_f_try_bitcoin_inside.svg"
   inkscape:version="1.3.2 (091e20ef0f, 2023-11-25, custom)"
   xmlns:inkscape="http://www.inkscape.org/namespaces/inkscape"
   xmlns:sodipodi="http://sodipodi.sourceforge.net/DTD/sodipodi-0.dtd"
   xmlns="http://www.w3.org/2000/svg"
   xmlns:svg="http://www.w3.org/2000/svg">
  <defs
     id="defs38" />
  <sodipodi:namedview
     id="namedview38"
     pagecolor="#505050"
     bordercolor="#eeeeee"
     borderopacity="1"
     inkscape:showpageshadow="0"
     inkscape:pageopacity="0"
     inkscape:pagecheckerboard="0"
     inkscape:deskcolor="#505050"
     inkscape:zoom="0.55382714"
     inkscape:cx="554.32459"
     inkscape:cy="617.5212"
     inkscape:window-width="1876"
     inkscape:window-height="991"
     inkscape:window-x="17"
     inkscape:window-y="62"
     inkscape:window-maximized="1"
     inkscape:current-layer="svg38" />
  <rect
     style="fill:#3a3a3a;fill-opacity:1;stroke:none;stroke-width:96.0781;stroke-linecap:round;stroke-linejoin:bevel;stroke-dasharray:none;stroke-opacity:1;paint-order:normal"
     id="rect46"
     width="1200"
     height="1309"
     x="0"
     y="0"
     ry="0" />
  <g
     id="g38"
     transform="matrix(0.74887226,0,0,0.74887226,720.25954,256.96472)">
    <path
       d="m 227.40841,627.61319 c -53.425,214.2875 -270.47496,344.68745 -484.78746,291.2625 -214.2125,-53.425 -344.625,-270.475 -291.1875,-484.75 53.4,-214.31251 270.4375,-344.73751 484.6875,-291.31251 214.3,53.425 344.69996,270.50001 291.27496,484.80001 z"
       fill="#f7931a"
       id="path1"
       style="stroke-width:12.5" />
    <path
       d="m 15.7375,481.2015 c 7.95,-53.225 -32.575,-81.8375 -87.9875,-100.925 l 17.975,-72.1 -43.9,-10.9375 -17.5,70.2 c -11.525,-2.875 -23.375,-5.5875 -35.15,-8.275 l 17.625,-70.6625 -43.8625,-10.9375 -17.9875,72.075 c -9.55,-2.175 -18.925,-4.325 -28.025,-6.5875 l 0.05,-0.225 -60.525,-15.1125 -11.675,46.875 c 0,0 32.5625,7.4625 31.875,7.925 17.775,4.4375 21,16.2 20.45,25.525 l -20.475,82.1375 c 1.225,0.3125 2.8125,0.7625 4.5625,1.4625 l -4.625,-1.15 -28.7125,115.0625 c -2.175,5.4 -7.6875,13.5 -20.1125,10.425 0.4375,0.6375 -31.9,-7.9625 -31.9,-7.9625 l -21.7875,50.25 57.125,14.2375 c 10.625,2.6625 21.0375,5.45 31.275,8.075 l -18.1625,72.9375 43.8375,10.9375 18,-72.15 c 11.9625,3.25 23.5875,6.25 34.9625,9.075 l -17.925,71.8125 43.8875,10.9375 18.1625,-72.7875 C -79.95,725.5015 -23.6625,719.789 0,652.114 c 19.0875,-54.5 -0.9375,-85.9375 -40.3125,-106.45 28.675,-6.6375 50.275,-25.5 56.0375,-64.4625 z M -84.55,621.814 c -13.575,54.5 -105.325,25.05 -135.0875,17.65 l 24.1,-96.6125 c 29.75,7.425 125.1375,22.125 111,78.9625 z m 13.5625,-141.4 c -12.375,49.575 -88.75,24.3875 -113.5375,18.2125 l 21.85,-87.625 c 24.7875,6.175 104.5875,17.7 91.6875,69.4125 z"
       fill="#ffffff"
       id="path2-3"
       style="stroke-width:12.5" />
  </g>
  <path
     id="path2"
     d="m 367.63092,95.902247 c -2.52486,3.429243 -3.86343,5.731913 -3.28397,10.079363 1.15367,8.64499 9.98522,26.06392 13.62576,34.9393 -4.16516,1.77776 -8.30796,3.60632 -12.42835,5.48565 -4.12097,1.87954 -8.21848,3.80861 -12.29127,5.78819 -4.07337,1.97989 -8.12154,4.00996 -12.14508,6.089 -4.02356,2.07905 -8.02091,4.20621 -11.99188,6.38302 -3.97152,2.1771 -7.91617,4.40301 -11.83295,6.67667 -3.91676,2.27366 -7.80475,4.5956 -11.66463,6.96452 -3.85983,2.36899 -7.69004,4.78528 -11.4903,7.24797 -3.80078,2.46291 -7.57077,4.97176 -11.30988,7.52698 -3.73909,2.55522 -7.44647,5.15482 -11.12179,7.80091 -3.6753,2.64606 -7.31749,5.33669 -10.92698,8.07207 -3.60946,2.73542 -7.18508,5.51597 -10.72612,8.33881 -3.54158,2.82316 -7.04836,5.68841 -10.51894,8.59713 -3.47113,2.90902 -6.90565,5.86121 -10.30435,8.85435 -3.39871,2.99315 -6.75977,6.02592 -10.08408,9.10145 -3.32435,3.07547 -6.6107,6.19226 -9.85811,9.34815 -3.24804,3.15608 -6.45602,6.35166 -9.6258,9.58641 -3.16916,3.2347 -6.29893,6.50751 -9.38812,9.81857 -3.08956,3.31188 -6.13724,6.66036 -9.14444,10.0463 -3.00717,3.38593 -5.97272,6.80753 -8.89605,10.26626 -2.92335,3.45872 -5.80389,6.95428 -8.64099,10.48347 -2.83771,3.52943 -5.63175,7.09319 -8.38194,10.69124 -2.75042,3.59747 -5.45708,7.22718 -8.1182,10.89121 -2.66112,3.66403 -5.27654,7.36142 -7.84707,11.09015 -2.57079,3.72813 -5.09474,7.48605 -7.57334,11.27622 -2.47807,3.78994 -4.90971,7.61075 -7.29459,11.4603 -2.38486,3.84955 -4.72197,7.72779 -7.01182,11.63488 -2.28929,3.90686 -4.53045,7.8414 -6.72373,11.80338 -2.19326,3.96195 -4.33824,7.94888 -6.43332,11.9631 -2.09566,4.0144 -4.14237,8.05427 -6.138572,12.11907 -1.99647,4.06423 -3.942168,8.15275 -5.838189,12.26493 -1.896541,4.11243 -3.741245,8.24832 -5.535764,12.40605 -1.794758,4.15714 -3.537806,8.33577 -5.230085,12.53602 -1.273553,3.13827 -2.520333,6.28739 -3.736824,9.4492 -1.216153,3.16097 -2.402382,6.33288 -3.56056,9.51637 -1.1584,3.18291 -2.287588,6.37711 -3.387339,9.58089 -1.099973,3.2032 -2.17113,6.41741 -3.212132,9.64068 -1.040962,3.22328 -2.052815,6.45433 -3.034928,9.69574 -0.982669,3.24159 -1.934386,6.49318 -2.857054,9.75247 -0.922908,3.25867 -1.815992,6.52558 -2.678551,9.80112 -0.863346,3.2752 -1.695483,6.55843 -2.498356,9.84909 -0.803133,3.2901 -1.57734,6.58704 -2.320244,9.89202 -0.743143,3.3044 -1.454847,6.61521 -2.137076,9.93288 -0.682411,3.31773 -1.335106,6.64194 -1.956961,9.97109 -0.621563,3.32971 -1.212449,6.66354 -1.773176,10.00387 -0.560733,3.34032 -1.091455,6.68717 -1.591062,10.03734 -0.499811,3.34957 -0.96833,6.70344 -1.406677,10.06204 -0.438284,3.3586 -0.845872,6.71932 -1.22294,10.08505 -0.376799,3.36626 -0.723708,6.73601 -1.03923,10.10806 -0.315244,3.37258 -0.60027,6.74768 -0.85421,10.12467 -0.25369,3.37761 -0.47625,6.75713 -0.668189,10.13892 -0.192102,3.38123 -0.351734,6.76446 -0.481856,10.14913 -0.130349,3.38412 -0.230899,6.76873 -0.299265,10.15498 -0.06837,3.38626 -0.106236,6.77406 -0.112629,10.16113 -0.0065,3.38706 0.01924,6.77261 0.07462,10.15919 0.05523,3.38601 0.141114,6.77326 0.258526,10.15863 0.117223,3.38476 0.265881,6.76757 0.444721,10.1493 0.17907,3.3823 0.388339,6.76217 0.629235,10.14065 0.240833,3.37847 0.51159,6.75455 0.814058,10.12794 0.302249,3.37286 0.636651,6.74294 1.000879,10.11054 0.363956,3.36708 0.757508,6.73111 1.182965,10.09113 0.425524,3.36001 0.882606,6.71624 1.369408,10.06798 0.486795,3.35173 1.004217,6.69829 1.552115,10.04049 0.547945,3.34214 1.126999,6.67922 1.73581,10.01061 0.608987,3.33199 1.246792,6.65812 1.916465,9.97809 3.361377,16.66596 7.505834,33.13414 12.43088,49.40646 3.041708,9.90577 7.384633,20.0595 9.519557,30.16355 l 9.64695,23.65543 c 1.754055,1.33761 3.422735,2.62195 5.592991,3.18609 2.884999,0.75004 6.490948,0.54218 9.030811,-1.13643 2.746564,-1.81508 4.674894,-5.45102 4.503324,-8.76083 -0.27649,-5.32297 -10.685636,-30.4464 -13.007323,-37.34226 -4.860816,-14.5508 -9.121834,-29.27564 -12.781062,-44.17471 -1.132833,-4.72767 -2.20099,-9.47066 -3.205029,-14.22812 -1.003758,-4.75692 -1.943332,-9.52741 -2.81724,-14.30989 -0.874068,-4.78304 -1.682048,-9.57723 -2.425319,-14.38154 -0.743506,-4.80488 -1.422072,-9.61815 -2.034348,-14.44111 -0.612457,-4.82356 -1.159194,-9.65442 -1.639942,-14.49225 -0.480675,-4.83783 -0.89514,-9.68081 -1.244102,-14.53028 -0.348892,-4.84946 -0.63208,-9.70298 -0.848879,-14.5602 -0.216799,-4.85722 -0.366163,-9.71663 -0.450551,-14.57771 -0.08432,-4.8611 -0.103268,-9.72193 -0.0555,-14.58407 0.04799,-4.86156 0.160987,-9.72267 0.341277,-14.58134 0.180292,-4.85869 0.42691,-9.71368 0.739505,-14.56549 0.312598,-4.85181 0.691129,-9.69886 1.13544,-14.54086 0.444597,-4.84143 0.95606,-9.67663 1.532095,-14.5048 0.576208,-4.8276 1.217223,-9.64508 1.92449,-14.45523 0.707146,-4.81079 1.48068,-9.61125 2.31892,-14.40062 0.838252,-4.78934 1.741101,-9.56779 2.709093,-14.33249 C 101.347,402.96873 185.17504,283.1859 306.29657,202.6848 c 5.35791,-3.39925 10.76239,-6.72217 16.2137,-9.96951 15.26967,-9.12805 30.948,-17.48958 47.03585,-25.08358 7.83061,-3.68893 20.84102,-7.89176 27.58265,-12.41399 2.32542,-1.55981 4.0452,-3.76258 4.67019,-6.53123 1.41463,-6.26473 -7.92483,-24.61621 -10.65084,-31.15561 63.51654,8.61717 126.96799,18.06277 190.55441,26.10368 l -77.5768,99.98085 c -13.38841,17.25703 -26.36616,35.17181 -40.40285,51.88188 l -10.36214,-25.67318 c -1.89401,-4.67134 -3.56998,-9.79951 -6.03833,-14.17743 -1.29482,-2.29713 -3.13871,-5.02687 -5.62376,-6.16267 -4.24407,-1.93983 -10.22021,0.64762 -14.2024,2.36989 -4.09403,1.74056 -8.15871,3.54344 -12.19715,5.40899 -4.03782,1.8653 -8.04792,3.79319 -12.02722,5.78238 -3.97894,1.98838 -7.92606,4.0384 -11.84221,6.14961 -3.91584,2.11041 -7.7972,4.28015 -11.64613,6.51038 -3.8489,2.23021 -7.66385,4.5188 -11.44232,6.86604 -3.77878,2.34802 -7.51942,4.75289 -11.22341,7.21552 -3.70455,2.46284 -7.37033,4.98254 -10.99745,7.55822 -3.62656,2.57545 -7.21354,5.2058 -10.75943,7.89209 -3.54592,2.68632 -7.04854,5.42701 -10.50968,8.22118 -3.46113,2.79415 -6.87848,5.64165 -10.25188,8.54111 -3.37421,2.89908 -6.70227,5.84922 -9.9844,8.85118 -3.28292,3.00162 -6.5195,6.05224 -9.70818,9.15382 -3.18867,3.10159 -6.32855,6.25322 -9.42024,9.45166 -3.09189,3.19785 -6.13392,6.44101 -9.12531,9.73293 -2.99194,3.29214 -5.93238,6.62999 -8.82131,10.01246 -2.8889,3.38251 -5.72583,6.80908 -8.50898,10.27882 l -4.00353,4.94305 c -10.40874,13.29294 -19.99884,27.15186 -28.77041,41.57703 l -5.84312,9.87526 -6.29411,11.43032 c -2.32322,4.49169 -5.24243,9.16862 -6.97064,13.90206 -1.28546,2.61727 -2.6619,5.22318 -3.78994,7.91164 -2.40807,4.96489 -4.6813,9.99086 -6.81826,15.07786 -6.26939,15.6646 -11.99836,31.39291 -16.78495,47.58009 -2.13888,7.57762 -4.56076,15.31657 -5.93633,23.07634 l -1.15636,4.95527 c -1.72488,8.15996 -3.72181,16.49109 -4.5593,24.80068 -0.49987,2.19256 -0.86603,4.36743 -1.177,6.59533 -0.49908,3.4897 -0.95584,6.98532 -1.37081,10.48619 -0.41415,3.50119 -0.78625,7.00722 -1.11529,10.51712 -0.32984,3.50961 -0.61595,7.02294 -0.85917,10.54001 -0.24402,3.51673 -0.44674,7.03593 -0.60506,10.55783 -0.15859,3.52133 -0.27334,7.04336 -0.34636,10.5679 -0.073,3.52454 -0.10364,7.04966 -0.0907,10.57526 0.0128,3.52498 0.0687,7.04979 0.16733,10.57385 0.0984,3.52351 0.23915,7.0468 0.42329,10.56744 0.18385,3.52006 0.41198,7.03698 0.68151,10.55223 0.26928,3.51463 0.58066,7.02501 0.93597,10.53266 0.35457,3.5073 0.75181,7.0095 1.19182,10.50669 0.43967,3.49798 0.92293,6.99076 1.44794,10.47668 0.525,3.48592 1.09108,6.9648 1.69993,10.43659 0.60908,3.47237 1.26059,6.93573 1.95394,10.39179 0.69358,3.45662 1.42883,6.90523 2.20656,10.34358 0.77691,3.43801 1.59616,6.86609 2.45674,10.28467 0.86061,3.41861 1.76249,6.82606 2.7056,10.22235 0.94333,3.39689 1.92719,6.78216 2.95234,10.15503 1.02572,3.37266 2.09233,6.7329 3.19974,10.0796 1.10683,3.34692 2.25454,6.67969 3.4427,9.99816 1.18839,3.31899 2.41686,6.6219 3.6853,9.91096 1.26842,3.28904 2.57641,6.56205 3.92413,9.81943 1.34749,3.2568 2.73499,6.49676 4.16196,9.7205 1.42701,3.22372 2.89215,6.42953 4.39604,9.6172 1.50471,3.18803 3.04801,6.35758 4.62973,9.50819 1.58146,3.15001 3.20098,6.2817 4.85899,9.39314 1.6572,3.11113 3.35296,6.20171 5.08552,9.27138 1.73338,3.07003 3.50334,6.11781 5.31001,9.14459 1.80668,3.02674 3.64959,6.03175 5.52907,9.01409 1.88006,2.98212 3.79513,5.94083 5.74707,8.87622 1.95138,2.93568 3.93879,5.84677 5.96135,8.73402 2.02255,2.88722 4.07999,5.74987 6.17188,8.58742 2.1294,2.87709 4.29419,5.72772 6.49431,8.5519 2.19987,2.82364 4.43355,5.61997 6.70203,8.38885 2.26848,2.7689 4.5709,5.51041 6.90672,8.22311 2.33582,2.71267 4.70576,5.39479 7.10797,8.04897 2.40142,2.65384 4.83495,5.27955 7.30117,7.87421 2.46675,2.5944 4.96498,5.15683 7.49424,7.68968 2.52948,2.53342 5.08881,5.03476 7.67926,7.50454 2.59124,2.4701 5.21164,4.90856 7.86222,7.31435 2.65062,2.40581 5.33152,4.7784 8.04077,7.11815 2.70926,2.33976 5.44616,4.64648 8.21221,6.91894 2.76548,2.27271 5.55892,4.51147 8.37993,6.7154 2.82102,2.20391 5.66913,4.37169 8.54323,6.50581 2.87412,2.1341 5.77485,4.2337 8.70079,6.2966 2.92572,2.0623 5.87555,4.0881 8.85091,6.0787 2.97569,1.9897 5.97514,3.943 8.99864,5.8598 3.02406,1.9165 6.07119,3.7954 9.14096,5.6371 3.06975,1.8417 6.16199,3.6462 9.27619,5.4117 3.11366,1.7656 6.2483,3.4922 9.40534,5.1807 3.15647,1.6887 6.33465,3.3383 9.5321,4.9488 3.19685,1.6107 6.4134,3.1816 9.64942,4.7129 3.2354,1.5315 6.48935,3.0229 9.76198,4.4751 3.27292,1.4512 6.56226,2.8628 9.86916,4.2335 3.3069,1.3705 6.62945,2.6999 9.96925,3.9889 3.34059,1.2894 6.69668,2.5371 10.06693,3.7434 3.37052,1.207 6.75438,2.3717 10.15286,3.4931 3.40076,1.1269 6.81518,2.2088 10.2401,3.2458 3.42666,1.0429 6.86425,2.0412 10.31387,2.9944 3.44963,0.9534 6.91097,1.8644 10.38415,2.7345 3.47267,0.8705 6.95465,1.6977 10.44683,2.4799 3.49454,0.788 6.99706,1.5294 10.50704,2.2242 3.5123,0.7004 7.03221,1.3575 10.56064,1.9712 3.5255,0.6081 7.05948,1.1759 10.60224,1.7034 40.43197,5.9665 79.78123,5.4432 120.31168,1.0395 -15.14414,19.2268 -30.18771,38.5338 -45.13127,57.9197 -8.06229,10.3682 -17.20095,20.7359 -24.38741,31.6999 -1.44154,2.2025 -3.8572,5.9856 -3.71276,8.6244 0.13887,2.5709 1.74949,5.4142 3.73987,6.9994 1.97128,1.5731 4.52799,2.3645 6.97715,2.8098 18.1706,3.2907 36.90351,5.1291 55.21718,7.6295 l 105.65445,14.4797 44.50369,6.2105 c 6.84495,0.9595 15.57052,3.1191 22.40281,2.5892 2.41715,-0.2135 4.29252,-0.7893 6.07716,-2.5096 1.1597,-0.7738 2.16252,-2.145 2.73095,-3.3997 1.26834,-2.824 0.68714,-5.8172 -0.0669,-8.7089 -1.31345,-5.0405 -3.84399,-10.1254 -5.82425,-14.9541 l -11.36151,-27.6005 c 0.82727,0.054 1.59239,0.1429 2.41011,-0.07 4.48431,-1.1869 9.22447,-3.8115 13.46398,-5.7512 11.6276,-5.3103 23.08193,-10.975 34.35992,-16.9917 2.78192,-1.4956 5.5523,-3.0113 8.31035,-4.5506 2.758,-1.5394 5.50149,-3.1028 8.23157,-4.6909 2.73008,-1.5882 5.44725,-3.1977 8.15185,-4.8287 2.70162,-1.6367 5.38971,-3.2963 8.06461,-4.9755 2.67491,-1.6792 5.33638,-3.3795 7.98399,-5.1011 2.64466,-1.7271 5.27447,-3.4744 7.89073,-5.2432 2.61621,-1.7691 5.21771,-3.5615 7.80255,-5.3779 2.58669,-1.8103 5.15591,-3.6465 7.70775,-5.5095 2.5547,-1.8575 5.09278,-3.7366 7.6156,-5.6346 2.52108,-1.9039 5.02716,-3.8278 7.51634,-5.7723 2.48863,-1.9442 4.96151,-3.908 7.41821,-5.8928 2.45612,-1.9845 4.89402,-3.993 7.31423,-6.0229 2.42079,-2.0302 4.824,-4.0792 7.21,-6.1488 2.38835,-2.0639 4.75611,-4.154 7.10444,-6.2684 2.3513,-2.1088 4.6838,-4.2364 6.99859,-6.3839 2.31478,-2.1474 4.61096,-4.3168 6.88694,-6.5086 2.27832,-2.1861 4.53699,-4.3939 6.7754,-6.6238 2.24067,-2.2243 4.46194,-4.4704 6.66204,-6.7384 2.20194,-2.2619 4.38239,-4.545 6.54379,-6.8505 2.1631,-2.2997 4.3073,-4.6186 6.4306,-6.9554 2.1209,-2.3425 4.2227,-4.7009 6.3055,-7.0747 2.0827,-2.3738 4.1444,-4.7665 6.1855,-7.1767 2.0412,-2.4102 4.0629,-4.8351 6.0647,-7.2762 1.9989,-2.4465 3.9772,-4.9092 5.9356,-7.38613 1.9586,-2.47678 3.8945,-4.97101 5.8097,-7.48362 1.9145,-2.51247 3.8084,-5.03982 5.6814,-7.58216 1.8723,-2.54197 3.7234,-5.1026 5.5513,-7.67983 1.8297,-2.57155 3.6375,-5.1599 5.422,-7.76654 1.784,-2.6062 3.5454,-5.22605 5.2855,-7.86126 1.7395,-2.63498 3.4552,-5.28882 5.1479,-7.95809 1.6951,-2.66371 3.3684,-5.34064 5.0179,-8.03242 1.6465,-2.69738 3.2704,-5.40664 4.8737,-8.12646 2.1086,-3.56781 4.1771,-7.16106 6.2021,-10.78168 2.0279,-3.61502 4.0135,-7.25384 5.9594,-10.91577 1.9454,-3.6616 3.8501,-7.34291 5.7147,-11.04522 1.864,-3.70197 3.6882,-7.42468 5.4726,-11.16773 1.7775,-3.74024 3.5159,-7.50546 5.2139,-11.29348 1.6944,-3.77993 3.3477,-7.57943 4.9591,-11.39913 1.6116,-3.81964 3.1816,-7.65637 4.7123,-11.50991 1.5226,-3.85705 3.0064,-7.72784 4.4508,-11.61303 1.4363,-3.88856 2.8342,-7.79228 4.1921,-11.70913 1.3499,-3.92029 2.6569,-7.85301 3.9226,-11.79912 1.2657,-3.94611 2.486,-7.90646 3.6596,-11.88183 1.1792,-3.97769 2.3132,-7.96778 3.4025,-11.96892 1.0838,-3.99897 2.1257,-8.00945 3.1253,-12.03432 1.0007,-4.02236 1.9529,-8.05562 2.8579,-12.09937 0.9107,-4.04597 1.7751,-8.10208 2.5918,-12.16528 0.8166,-4.06381 1.5895,-8.13479 2.3185,-12.21636 0.7231,-4.07985 1.4021,-8.16818 2.0383,-12.26473 0.6361,-4.09647 1.227,-8.20065 1.7709,-12.31036 0.5437,-4.10961 1.0418,-8.22397 1.4943,-12.3445 0.4524,-4.12058 0.8594,-8.24577 1.221,-12.37609 0.3616,-4.13027 0.6738,-8.26299 0.9396,-12.3984 0.2714,-4.13829 0.4957,-8.27883 0.6721,-12.42053 0.1704,-4.13991 0.2988,-8.28315 0.3864,-12.42943 0.082,-4.1439 0.1168,-8.28828 0.1052,-12.43221 -0.01,-4.14679 -0.061,-8.29075 -0.1658,-12.43341 -0.099,-4.145 -0.2478,-8.28742 -0.4451,-12.42718 -0.1915,-4.14211 -0.4319,-8.28093 -0.7203,-12.41489 -0.2827,-4.13688 -0.6132,-8.26828 -0.9975,-12.39552 -0.3793,-4.12756 -0.8042,-8.25042 -1.2739,-12.36935 -0.4752,-4.11664 -0.992,-8.23003 -1.5509,-12.3386 -0.5646,-4.10563 -1.174,-8.20617 -1.8272,-12.3004 -0.6533,-4.0935 -1.3544,-8.17851 -2.1009,-12.25535 -3.7719,-20.34839 -8.6323,-40.43331 -14.5826,-60.25431 -3.2245,-10.51323 -7.5775,-20.89335 -10.2805,-31.52996 l -0.1458,-0.60245 -8.3299,-20.42577 c -3.3394,-2.6307 -5.9312,-4.16756 -10.3892,-3.68845 -2.6336,0.28076 -5.086,1.30304 -6.7368,3.4525 -1.865,2.43542 -2.1823,5.74087 -1.7045,8.68306 1.2632,7.74571 10.255,28.19308 13.1988,37.00953 3.6115,11.06944 6.8804,22.2403 9.805,33.5103 2.9185,11.2718 5.4878,22.62184 7.7087,34.05177 0.8262,4.35397 1.5955,8.71988 2.3098,13.09472 0.7144,4.3748 1.3759,8.75724 1.9829,13.14773 0.6071,4.39051 1.1593,8.78814 1.6582,13.192 0.499,4.40384 0.9436,8.81161 1.3334,13.22653 0.3894,4.41496 0.7241,8.83534 1.0038,13.25908 0.2797,4.42316 0.5029,8.84948 0.6712,13.27915 0.1686,4.43022 0.2853,8.86079 0.3472,13.29178 0.062,4.43152 0.067,8.86334 0.016,13.29567 -0.051,4.43284 -0.1567,8.8643 -0.316,13.29386 -0.1592,4.42955 -0.3726,8.85558 -0.641,13.27953 -0.2685,4.42397 -0.5914,8.8442 -0.9698,13.26085 -0.3788,4.41609 -0.8101,8.82628 -1.2938,13.23036 -0.4896,4.40648 -1.0323,8.80662 -1.6281,13.19829 -0.5958,4.39224 -1.2489,8.77682 -1.9576,13.15434 -0.7029,4.37518 -1.4595,8.74149 -2.2704,13.09783 -0.8166,4.35867 -1.6855,8.70524 -2.6053,13.04047 -0.9197,4.33518 -1.8942,8.65808 -2.9235,12.97046 -1.0294,4.3124 -2.1118,8.61137 -3.2459,12.89626 -1.1354,4.28204 -2.3226,8.55147 -3.5621,12.8078 -1.2394,4.25629 -2.5314,8.4966 -3.8768,12.72257 -1.3478,4.22025 -2.7449,8.42798 -4.1905,12.62134 -1.4481,4.18759 -2.95,8.35791 -4.5066,12.50922 -1.5504,4.14932 -3.1522,8.27957 -4.8055,12.39032 -1.6589,4.11318 -3.3666,8.20432 -5.1225,12.27657 -1.7538,4.07174 -3.5607,8.11861 -5.4192,12.13929 -1.8561,4.0264 -3.7617,8.02989 -5.717,12.0098 -1.9547,3.97979 -3.9585,7.93348 -6.0129,11.86032 -2.054,3.92653 -4.1568,7.82881 -6.3064,11.70762 -2.1515,3.87257 -4.3492,7.72079 -6.5942,11.54472 -2.2449,3.82392 -4.5383,7.61638 -6.8791,11.37907 -2.3384,3.76842 -4.7225,7.5068 -7.1545,11.21315 -2.4318,3.70623 -4.9097,7.37992 -7.4335,11.0233 -2.7594,3.98699 -5.5738,7.937 -8.4412,11.84775 -2.8645,3.91598 -5.7834,7.78689 -8.7577,11.6141 -2.972,3.83294 -5.9947,7.62663 -9.0684,11.38057 -3.0761,3.74832 -6.2029,7.4535 -9.3801,11.116 -3.17492,3.6682 -6.40031,7.2907 -9.67579,10.8665 -3.27551,3.5754 -6.59809,7.1064 -9.96903,10.5938 -3.37271,3.4816 -6.7912,6.9228 -10.25474,10.321 -3.46524,3.3922 -6.97679,6.7352 -10.53355,10.031 -3.55673,3.2959 -7.15614,6.5456 -10.79912,9.7497 -3.64482,3.1979 -7.33347,6.3467 -11.06395,9.4461 -3.73054,3.0992 -7.50238,6.1448 -11.31696,9.138 -3.8128,2.9991 -7.66562,5.9456 -11.55909,8.8371 -3.89341,2.8916 -7.82592,5.7284 -11.79772,8.5115 -3.97121,2.7828 -7.9801,5.5135 -12.02386,8.1922 -4.04669,2.6732 -8.12851,5.2922 -12.24606,7.8539 -4.1152,2.5675 -8.26552,5.0751 -12.45105,7.5242 -13.67511,7.9705 -27.66127,15.352 -41.95821,22.1452 -7.62257,3.6802 -31.77875,12.438 -36.61151,16.9463 -2.74799,2.5647 -2.899,6.228 -2.25125,9.7345 1.55334,8.4126 10.46399,26.1503 13.96043,35.2749 -0.63633,0.2594 -1.14289,0.4952 -1.84786,0.493 -5.36995,0.014 -11.48122,-1.496 -16.84157,-2.2285 l -37.71001,-5.1907 -133.76019,-18.3728 c 39.16762,-50.6834 77.97186,-101.8004 117.83295,-151.9343 3.16229,7.5059 9.86291,27.199 14.04109,32.9367 1.1366,1.5623 3.06919,2.8205 4.84583,3.5201 6.81075,2.6782 30.72992,-9.9454 38.08005,-13.4845 13.48407,-6.4617 26.58199,-13.6276 39.29494,-21.4999 l 6.60313,-4.0873 c 5.05878,-3.2064 10.01967,-6.5573 14.88338,-10.0518 l 4.92057,-3.3093 c 34.77012,-26.68579 63.58541,-53.13055 90.43872,-88.00044 2.16535,-2.82871 4.29744,-5.68036 6.39525,-8.55496 2.09544,-2.88044 4.15664,-5.78352 6.18336,-8.70948 2.02443,-2.93161 4.01301,-5.88576 5.96648,-8.86186 1.95338,-2.9763 3.87009,-5.97834 5.74959,-9.00464 1.88123,-3.02042 3.72341,-6.06432 5.52843,-9.13389 1.80558,-3.06986 3.57373,-6.16084 5.30317,-9.27313 1.73005,-3.11242 3.4219,-6.2468 5.07463,-9.40127 1.65274,-3.1545 3.26735,-6.32829 4.84382,-9.52058 1.57544,-3.19318 3.11205,-6.40376 4.60926,-9.63459 1.49748,-3.23026 2.95489,-6.47909 4.37211,-9.74546 1.41802,-3.26607 2.79463,-6.54929 4.13193,-9.84929 1.3373,-3.30001 2.6351,-6.61594 3.8921,-9.94737 1.2562,-3.33175 2.4707,-6.67733 3.6453,-10.03867 1.1745,-3.36133 2.3086,-6.73645 3.4005,-10.12494 1.0923,-3.38929 2.1421,-6.79051 3.1504,-10.2051 1.0093,-3.41427 1.9772,-6.84208 2.9024,-10.28023 0.925,-3.43876 1.8071,-6.88698 2.6479,-10.34691 0.8411,-3.45934 1.6396,-6.92906 2.3956,-10.40852 0.7554,-3.4792 1.4689,-6.96789 2.1396,-10.46473 0.6706,-3.49679 1.298,-7.00089 1.8829,-10.51284 0.5867,-3.51274 1.128,-7.0303 1.6232,-10.55391 0.5011,-3.52589 0.9566,-7.05656 1.3668,-10.59226 0.4161,-3.5374 0.788,-7.08082 1.1139,-10.62625 0.3259,-3.54545 0.6078,-7.09252 0.8444,-10.64367 0.2423,-3.55346 0.4395,-7.11042 0.5931,-10.66852 0.1482,-3.55518 0.2558,-7.11172 0.3218,-10.67148 0.066,-3.55978 0.088,-7.12027 0.067,-10.6812 -0.021,-3.56033 -0.087,-7.11927 -0.1944,-10.67843 -0.1073,-3.55863 -0.2603,-7.11625 -0.4593,-10.67027 -0.1928,-3.55575 -0.4322,-7.10751 -0.7159,-10.65573 -0.2856,-3.54868 -0.608,-7.09385 -0.9761,-10.63579 -0.3682,-3.54129 -0.7802,-7.07732 -1.237,-10.60773 l -0.9108,-6.48435 c -0.5874,-4.31764 -1.3286,-8.62279 -1.9921,-12.93045 l -1.2929,-6.88288 c -1.3125,-6.62878 -2.7732,-13.22628 -4.3801,-19.78984 -1.6071,-6.56412 -3.36,-13.0885 -5.2565,-19.57537 -1.902,-6.48399 -3.9488,-12.92224 -6.1412,-19.31455 -2.1863,-6.39409 -4.5188,-12.73519 -6.9957,-19.02284 C 959.43807,382.44522 875.03873,298.27626 767.06354,251.55545 c -6.67368,-2.8291 -13.42279,-5.46738 -20.24591,-7.91525 -2.16962,-0.81362 -4.36394,-1.57485 -6.56395,-2.32004 -2.19999,-0.74519 -4.40543,-1.47522 -6.59799,-2.22582 l -6.28522,-2.09286 -14.17043,-4.10323 -6.64363,-1.74691 c -51.2372,-14.14089 -104.66125,-16.30176 -157.3245,-11.21143 12.24299,-15.25548 24.02742,-30.92934 36.05698,-46.35653 7.58537,-9.72756 16.01867,-19.41563 22.87241,-29.64617 1.58207,-2.36212 3.90727,-5.98175 3.93924,-8.85201 0.0216,-1.99556 -1.28426,-4.45862 -2.53001,-5.94938 -1.9982,-2.39139 -4.44024,-3.27876 -7.40261,-3.92505 -9.51225,-2.07498 -19.61995,-2.88416 -29.27519,-4.19579 l -54.76771,-7.46049 C 469.794,106.90387 421.37831,99.216061 372.91288,93.748207 Z m 64.24192,177.360873 c 6.80776,16.69096 12.98264,34.26148 20.81453,50.45358 2.78469,1.98135 5.713,3.85878 9.29612,3.36634 2.35863,-0.32502 4.56393,-1.48029 6.2589,-3.13029 6.3443,-6.17763 11.69676,-14.59919 17.15253,-21.635 15.05529,-19.41608 29.59864,-39.79342 45.50639,-58.48404 58.6596,-8.77426 113.51521,-6.38493 171.11605,7.88689 4.45655,1.3698 8.94466,2.62991 13.46297,3.78061 l 12.83243,4.07888 8.57474,3.02393 c 7.1546,2.53605 14.23076,5.27297 21.22971,8.20944 3.15225,1.31599 6.28841,2.67155 9.40693,4.0655 3.11907,1.39372 6.22014,2.82528 9.30306,4.29591 3.08292,1.47064 6.14773,2.98005 9.19345,4.5267 3.04574,1.54665 6.07109,3.13071 9.07777,4.75212 3.00609,1.62163 5.99247,3.2796 8.95733,4.97558 2.96545,1.69573 5.90813,3.42893 8.83051,5.1977 2.92178,1.76903 5.82181,3.57323 8.69924,5.41382 2.87765,1.84116 5.73262,3.71677 8.56327,5.62793 2.83086,1.91172 5.63734,3.85827 8.42019,5.83907 2.78249,1.98161 5.5391,3.99708 8.27169,6.04654 2.73259,2.0494 5.43896,4.13283 8.11948,6.24963 2.68109,2.11657 5.33579,4.26594 7.96352,6.44839 2.62715,2.18272 5.22794,4.39709 7.80045,6.64421 2.57082,2.24776 5.11589,4.52604 7.6353,6.83491 2.51359,2.31058 4.99983,4.65282 7.45821,7.0247 2.45829,2.37188 4.88538,4.77373 7.28152,7.20642 2.40206,2.43094 4.77026,4.89305 7.10347,7.38481 2.33929,2.48998 4.64693,5.00853 6.92282,7.55642 2.27575,2.54731 4.51558,5.12473 6.72155,7.73058 2.2115,2.60293 4.3909,5.23237 6.53769,7.88978 2.14678,2.6574 4.26153,5.34071 6.34242,8.04971 2.07521,2.71133 4.11898,5.44596 6.13356,8.20542 2.00883,2.7618 3.98419,5.54876 5.92582,8.35869 1.94145,2.81001 3.84862,5.64215 5.72225,8.49852 1.86791,2.85871 3.70491,5.73886 5.50975,8.64 1.79889,2.90292 3.55983,5.82905 5.28366,8.77729 1.72933,2.94531 3.42208,5.91237 5.07557,8.9013 1.65327,2.98837 3.27088,5.99601 4.8532,9.02334 1.57658,3.02965 3.11562,6.07743 4.62014,9.14384 1.50453,3.06642 2.97078,6.15074 4.39699,9.25445 1.42596,3.10311 2.81524,6.22323 4.16766,9.35971 1.34973,3.13756 2.65706,6.29297 3.92923,9.46281 9.61606,23.97311 17.45986,49.18391 22.17049,74.60485 0.7303,3.93044 1.5509,7.86143 2.1494,11.81252 l 0.5757,2.37234 -0.022,0.68091 c 0.5264,3.72566 1.1508,7.47334 1.533,11.21373 l 0.8843,6.29926 1.2729,13.10233 0.6059,7.40492 c 0.9889,23.94309 0.8595,47.53112 -1.6947,71.39368 -0.3034,2.75467 -0.6346,5.50616 -0.9923,8.25357 -0.3582,2.74827 -0.7437,5.49193 -1.1559,8.23211 -0.4131,2.7399 -0.8534,5.47602 -1.3208,8.2073 -0.4672,2.73187 -0.9614,5.45813 -1.483,8.17941 -0.5214,2.72189 -1.0698,5.43912 -1.6459,8.14987 -0.5755,2.7105 -1.1782,5.41365 -1.8081,8.1122 -0.6298,2.69859 -1.2864,5.39068 -1.96965,8.07625 -0.68326,2.6856 -1.39224,5.36544 -2.12859,8.03724 -0.73715,2.67148 -1.50068,5.33543 -2.29022,7.99151 -0.79014,2.65631 -1.60629,5.30429 -2.44852,7.94441 -0.84302,2.63975 -1.71174,5.2705 -2.60648,7.89325 -0.89533,2.62298 -1.81795,5.23641 -2.76513,7.84043 -0.94694,2.60457 -1.91805,5.19981 -2.91709,7.78486 -0.99906,2.58506 -2.02489,5.15948 -3.07513,7.72395 -1.05021,2.56446 -2.12534,5.11724 -3.22643,7.6603 -1.10109,2.54309 -2.22786,5.07644 -3.37945,7.59735 -1.15182,2.52029 -2.32873,5.02852 -3.53014,7.52558 -1.20198,2.49733 -2.4278,4.98182 -3.67847,7.45484 -1.25147,2.47271 -2.52712,4.93458 -3.8275,7.38243 -1.30005,2.44706 -2.6254,4.88037 -3.97422,7.30126 -1.34864,2.42134 -2.7216,4.82805 -4.11929,7.21932 -1.39627,2.39471 -2.8163,4.77626 -4.2599,7.14348 -1.443,2.36698 -2.91022,4.71528 -4.40233,7.04879 -1.48974,2.33925 -3.00324,4.66291 -4.54094,6.96823 -1.53771,2.3053 -3.099,4.59282 -4.6835,6.86369 -1.5821,2.2767 -3.18833,4.53515 -4.81668,6.77724 -1.62608,2.24765 -3.276,4.47543 -4.94944,6.68224 -1.67175,2.21272 -3.36489,4.40455 -5.08286,6.57606 -1.71562,2.17725 -3.45389,4.33684 -5.21283,6.4783 -1.759,2.14137 -3.53945,4.26461 -5.34119,6.37006 -1.7994,2.11119 -3.62048,4.20218 -5.46381,6.27113 -1.84339,2.06888 -3.70686,4.11851 -5.59129,6.15066 -5.58363,5.94762 -11.28953,11.77848 -17.11672,17.49119 l -5.96818,5.44265 c -4.3768,4.09829 -8.87156,8.06303 -13.48297,11.89597 l -5.4464,4.59907 c -5.25735,4.06957 -10.45862,8.29602 -15.85261,12.18051 l -4.67314,3.32997 c -24.67537,18.16602 -52.32536,32.76142 -80.45215,44.77342 -4.31415,-10.2049 -11.42195,-31.8768 -16.81452,-39.97744 -0.9921,-1.49083 -2.62752,-2.64888 -4.03242,-3.72064 -1.84403,-0.34118 -3.6377,-0.62221 -5.51964,-0.43656 -2.2842,0.22996 -4.13733,1.25561 -5.79623,2.80467 -6.59175,6.17825 -12.23589,15.07817 -17.80174,22.26207 l -34.28308,44.2893 c -79.21684,13.6316 -156.454,6.7787 -231.22738,-23.3771 -3.14118,-1.2643 -6.26675,-2.5662 -9.37589,-3.9077 -3.1084,-1.3413 -6.20075,-2.7209 -9.27608,-4.1385 -3.07508,-1.417 -6.13154,-2.8724 -9.17082,-4.3656 -3.03905,-1.4925 -6.05845,-3.0222 -9.06017,-4.5888 -3.00193,-1.5672 -5.98495,-3.1711 -8.94712,-4.8113 -2.9622,-1.6402 -5.90382,-3.3171 -8.82466,-5.0297 -2.92085,-1.7126 -5.82084,-3.46 -8.69844,-5.2437 -2.87786,-1.7843 -5.73314,-3.6043 -8.5665,-5.45817 -2.8328,-1.85411 -5.64253,-3.74123 -8.42946,-5.66487 -2.78671,-1.92306 -5.54851,-3.88097 -8.2867,-5.87196 -2.73842,-1.99155 -5.45157,-4.01668 -8.1402,-6.07469 -2.68859,-2.05801 -5.35227,-4.14822 -7.98926,-6.2714 -2.63721,-2.12375 -5.24765,-4.27933 -7.83195,-6.46681 -2.5843,-2.18745 -5.1417,-4.40714 -7.67088,-6.65783 -2.52975,-2.25051 -5.03036,-4.5313 -7.50372,-6.84355 -2.4734,-2.31226 -4.91801,-4.65461 -7.33352,-7.02656 -2.41631,-2.37231 -4.803,-4.77447 -7.15958,-7.20523 -2.35655,-2.43075 -4.68372,-4.89025 -6.97951,-7.37856 -2.29638,-2.48807 -4.56144,-5.0034 -6.79576,-7.54753 -2.23408,-2.54357 -4.43581,-5.11468 -6.60656,-7.71283 -2.17132,-2.59789 -4.30985,-5.22355 -6.416,-7.87476 -2.1065,-2.65042 -4.18093,-5.32517 -6.22134,-8.02662 -2.04061,-2.70201 -4.04736,-5.42812 -6.02092,-8.17887 -1.97383,-2.75133 -3.91356,-5.52725 -5.81849,-8.32607 -1.9055,-2.79859 -3.77491,-5.6193 -5.61026,-8.46387 -1.83614,-2.84493 -3.63696,-5.71306 -5.40201,-8.60169 -1.76528,-2.8892 -3.49497,-5.80002 -5.18867,-8.73179 -1.69371,-2.93173 -3.35195,-5.88289 -4.97259,-8.85516 -1.62063,-2.97226 -3.20347,-5.96347 -4.75111,-8.97487 -1.54766,-3.01137 -3.05897,-6.04117 -4.53159,-9.08984 -1.47262,-3.04866 -2.90644,-6.11507 -4.30362,-9.19849 -1.39744,-3.08401 -2.75802,-6.18466 -4.07933,-9.30172 -44.507,-105.10065 -43.21813,-216.83785 -0.55013,-322.19646 8.32613,-19.21622 17.74159,-37.23968 28.13158,-55.40609 46.81388,-73.55863 107.16337,-128.79786 187.59138,-163.78363 z"
     style="fill:#ffb300;fill-opacity:1;stroke:#ffb300;stroke-width:20;stroke-linecap:round;stroke-linejoin:round;stroke-dasharray:none;stroke-opacity:1;paint-order:normal" />
  <path
     fill="#6896B9"
     d="M1035.17 747.152C1036.18 742.969 1036.96 738.716 1037.83 734.5C1038.03 734.659 1038.22 734.822 1038.42 734.977C1039.92 736.131 1038.58 735.116 1040.25 736.163C1041.51 736.946 1041.77 737.561 1042.44 738.822C1042.34 740.758 1042.18 741.162 1040.78 742.498C1039.04 744.157 1037.05 745.641 1035.17 747.152Z"
     id="path3"
     style="fill:#000000;fill-opacity:0" />
  <path
     fill="#6896B9"
     d="M1034.78 749.752C1036.4 748.402 1037.01 747.491 1039.14 747.281C1045.79 750.076 1048.96 757.708 1055.19 761.35L1053.46 768.185C1053.34 768.038 1053.25 767.863 1053.11 767.745C1046.48 762.392 1040.97 755.931 1034.48 750.421L1034.78 749.752Z"
     id="path4"
     style="fill:#000000;fill-opacity:0" />
  <path
     fill="#6896B9"
     d="M1058.46 747.646C1057.28 746.781 1056.18 745.696 1055.16 744.649C1051.82 741.203 1048.71 736.719 1049.04 731.695C1049.28 728.066 1050.24 723.981 1052.97 721.433C1054.41 721.128 1054.42 721.183 1055.75 721.84C1057.46 724.735 1055.26 729.977 1055.36 733.326C1055.45 736.269 1057.24 738.014 1059.38 739.778C1059.57 739.94 1059.77 740.097 1059.97 740.257L1058.46 747.646Z"
     id="path5"
     style="fill:#000000;fill-opacity:0" />
  <path
     fill="#6896B9"
     d="M1025.71 782.45C1027.14 782.707 1027.4 782.85 1028.67 781.961C1030.76 780.495 1031.89 777.969 1034.38 777.29C1035.43 778.247 1035.7 778.331 1035.72 779.847C1035.74 782.076 1034.22 785.137 1032.56 786.598C1030.06 788.791 1026.51 789.688 1023.3 790.079L1025.71 782.45Z"
     id="path10"
     style="fill:#000000;fill-opacity:0" />
  <path
     fill="#6896B9"
     d="M216.835 378.814C221.362 371.636 226.925 364.905 232.139 358.219C233.838 359.78 235.361 361.164 236.597 363.124C231.526 367.678 223.796 378.654 216.835 378.814Z"
     id="path11"
     style="fill:#000000;fill-opacity:0" />
  <path
     fill="#6896B9"
     d="M208.322 400.069C208.43 397.118 208.076 393.451 210.584 391.387C210.793 391.214 211.033 391.081 211.258 390.929C212.806 391.267 213.061 391.372 213.906 392.86C215.384 395.465 214.711 399.768 213.619 402.376C211.909 406.463 208.343 409.544 204.21 411.055C201.479 412.054 198.068 412.114 195.181 412.258C196.397 410.163 197.648 408.143 199.038 406.16C202.138 406.012 204.377 405.087 206.423 402.674C207.116 401.855 207.723 400.959 208.322 400.069Z"
     id="path13"
     style="fill:#000000;fill-opacity:0" />
  <path
     fill="#6896B9"
     d="M1031.45 762.226C1036.6 766.53 1042.48 771.667 1043.02 778.831C1043.4 783.902 1041.3 787.957 1039.01 792.279C1037.57 790.858 1035.48 789.476 1035.38 787.329C1035.17 782.576 1038.46 778.581 1035.08 774.128C1033.63 772.208 1031.71 770.29 1029.77 768.867L1031.45 762.226Z"
     id="path14"
     style="fill:#000000;fill-opacity:0" />
</svg>
