<svg width="45" height="45" viewBox="0 0 45 45" fill="none" xmlns="http://www.w3.org/2000/svg">
<path d="M9.99998 45C9.67097 45.0028 9.34481 44.9083 9.04022 44.7217C8.73562 44.5352 8.45858 44.2603 8.22498 43.9129L0.724983 32.6667C0.378088 32.1396 0.143098 31.4701 0.0496625 30.7429C-0.0437728 30.0157 0.00853384 29.2633 0.199982 28.5806C0.387533 27.896 0.706027 27.31 1.11533 26.8964C1.52463 26.4828 2.00642 26.2601 2.49998 26.2564H42.5C43.163 26.2564 43.7989 26.6514 44.2677 27.3544C44.7366 28.0574 45 29.0109 45 30.0051C45 30.9993 44.7366 31.9528 44.2677 32.6559C43.7989 33.3589 43.163 33.7538 42.5 33.7538H8.52498L11.775 38.5897C12.0093 38.9382 12.1953 39.3528 12.3222 39.8096C12.4491 40.2664 12.5145 40.7564 12.5145 41.2513C12.5145 41.7461 12.4491 42.2361 12.3222 42.6929C12.1953 43.1498 12.0093 43.5644 11.775 43.9129C11.5414 44.2603 11.2643 44.5352 10.9597 44.7217C10.6552 44.9083 10.329 45.0028 9.99998 45Z" fill="#FEC134"/>
<path d="M42.5 18.7589H2.5C1.83696 18.7589 1.20107 18.364 0.732233 17.6609C0.263392 16.9579 0 16.0044 0 15.0102C0 14.016 0.263392 13.0625 0.732233 12.3595C1.20107 11.6564 1.83696 11.2615 2.5 11.2615H36.475L33.225 6.42564C32.7542 5.71975 32.4898 4.76234 32.4898 3.76405C32.4898 2.76577 32.7542 1.80836 33.225 1.10247C33.6958 0.396569 34.3342 0 35 0C35.6658 0 36.3042 0.396569 36.775 1.10247L44.275 12.3486C44.6219 12.8758 44.8569 13.5452 44.9503 14.2724C45.0438 14.9996 44.9914 15.752 44.8 16.4347C44.6124 17.1193 44.294 17.7053 43.8847 18.1189C43.4754 18.5325 42.9936 18.7552 42.5 18.7589Z" fill="white"/>
</svg>
