<svg width="60" height="60" viewBox="0 0 60 60" fill="none" xmlns="http://www.w3.org/2000/svg">
<path fill-rule="evenodd" clip-rule="evenodd" d="M30 58.125C44.4975 58.125 56.25 46.3725 56.25 31.875C56.25 17.3775 44.4975 5.625 30 5.625C15.5025 5.625 3.75 17.3775 3.75 31.875C3.75 36.5829 4.98937 41.0014 7.15963 44.8219L3.75 58.125L17.4654 54.9446C21.1901 56.9726 25.4604 58.125 30 58.125ZM30 54.0866C42.2672 54.0866 52.2116 44.1422 52.2116 31.875C52.2116 19.608 42.2672 9.66347 30 9.66347C17.7329 9.66347 7.78847 19.608 7.78847 31.875C7.78847 36.6114 9.27094 41.0016 11.7972 44.6066L9.80769 52.0672L17.3999 50.1692C20.9801 52.6399 25.3211 54.0866 30 54.0866Z" fill="#BFC8D0"/>
<path d="M52.5 30C52.5 42.4264 42.4264 52.5 30 52.5C25.2604 52.5 20.8629 51.0345 17.2362 48.5319L9.54546 50.4546L11.5608 42.897C9.00172 39.2451 7.5 34.7979 7.5 30C7.5 17.5736 17.5736 7.5 30 7.5C42.4264 7.5 52.5 17.5736 52.5 30Z" fill="url(#paint0_linear_24_78)"/>
<path fill-rule="evenodd" clip-rule="evenodd" d="M30 56.25C44.4975 56.25 56.25 44.4975 56.25 30C56.25 15.5025 44.4975 3.75 30 3.75C15.5025 3.75 3.75 15.5025 3.75 30C3.75 34.7079 4.98937 39.1264 7.15963 42.9469L3.75 56.25L17.4654 53.0696C21.1901 55.0976 25.4604 56.25 30 56.25ZM30 52.2116C42.2672 52.2116 52.2116 42.2672 52.2116 30C52.2116 17.7329 42.2672 7.78847 30 7.78847C17.7329 7.78847 7.78847 17.7329 7.78847 30C7.78847 34.7364 9.27094 39.1266 11.7972 42.7316L9.80769 50.1922L17.3999 48.2942C20.9801 50.7649 25.3211 52.2116 30 52.2116Z" fill="white"/>
<path d="M23.4375 17.8124C22.8135 16.5588 21.8559 16.6697 20.8888 16.6697C19.1603 16.6697 16.4648 18.7403 16.4648 22.5938C16.4648 25.7519 17.8565 29.2088 22.5457 34.3802C27.0712 39.3711 33.0176 41.9528 37.9541 41.8649C42.8906 41.7771 43.9063 37.5289 43.9063 36.0944C43.9063 35.4586 43.5116 35.1413 43.2399 35.0551C41.5577 34.2477 38.4549 32.7434 37.749 32.4608C37.0431 32.1782 36.6744 32.5606 36.4453 32.7685C35.8052 33.3784 34.5362 35.1766 34.1016 35.581C33.6671 35.9854 33.0193 35.7807 32.7497 35.6279C31.7576 35.2298 29.0679 34.0334 26.9241 31.9549C24.2724 29.3847 24.1168 28.5002 23.6173 27.7131C23.2177 27.0833 23.511 26.6971 23.6572 26.5281C24.2286 25.8691 25.0174 24.8513 25.3712 24.3456C25.7248 23.8397 25.4441 23.0719 25.2756 22.5938C24.5509 20.5369 23.9368 18.8151 23.4375 17.8124Z" fill="white"/>
<defs>
<linearGradient id="paint0_linear_24_78" x1="49.6875" y1="13.125" x2="7.5" y2="52.5" gradientUnits="userSpaceOnUse">
<stop stop-color="#5BD066"/>
<stop offset="1" stop-color="#27B43E"/>
</linearGradient>
</defs>
</svg>
